<?xml version="1.0" standalone="no"?><!DOCTYPE svg PUBLIC "-//W3C//DTD SVG 1.1//EN" "http://www.w3.org/Graphics/SVG/1.1/DTD/svg11.dtd"><svg class="icon" width="200px" height="200.00px" viewBox="0 0 1024 1024" version="1.1" xmlns="http://www.w3.org/2000/svg"><path fill="#2c2c2c" d="M963.1 493.3c-5.8-159.1-104.9-267.4-104.9-267.4C705 47.6 508.4 64.3 508.4 64.3c-209.9-6.7-339 151.6-339.1 151.5C81 320.8 71 417.4 71 417.4c-39.1 162.5 42.5 302.4 42.5 302.4 60.8 110 125 160.8 229.1 209.1 104.2 48.3 262.4 41.6 360.7-7.5 98.3-49.1 158.2-103.2 213.2-205.7 54.9-102.5 46.6-222.4 46.6-222.4zM465.9 862.4S301 853.2 210.2 695c0 0-78.3-111.6-45.8-250.7C196.9 305 272.7 249.2 287.7 235c15-14.1 112-71.8 178.2-70.8V330h-70s-95 5.8-98.3 110.8v153.3s2.5 94.1 100.8 105h67.5v163.3z m-56.6-260.9s-16.7 4.2-19.2-15V439.9s2.5-15.8 15-15.8h205.7s17.5-3.3 19.2 15.8v142.4s4.2 22.5-12.5 19.2H409.3zM809.9 709c-66.6 101.6-193.2 148.3-252.4 153.3V699h78.3s83.3-16.7 88.3-103.3V421.6s-13.3-87.5-105.8-91.6h-60.8l0.1-165.8s104.1 8.3 188.2 85.8 105.8 154.9 114.9 196.6c9.2 41.6 15.8 160.8-50.8 262.4z"  /></svg>