<?xml version="1.0" standalone="no"?><!DOCTYPE svg PUBLIC "-//W3C//DTD SVG 1.1//EN" "http://www.w3.org/Graphics/SVG/1.1/DTD/svg11.dtd"><svg class="icon" width="200px" height="200.00px" viewBox="0 0 1024 1024" version="1.1" xmlns="http://www.w3.org/2000/svg"><path fill="#2c2c2c" d="M710.558242 462.359416h173.918051c13.608949 0 24.64019 11.04352 24.64019 24.65554v397.445987c0 13.617136-11.226692 24.65554-24.64019 24.65554H139.523707c-13.608949 0-24.64019-11.04352-24.64019-24.65554V487.015979c0-13.617136 11.227716-24.65554 24.64019-24.655539h173.918051c13.707187 0 24.820292-11.112082 24.820292-24.820292 0-13.707187-11.113105-24.820292-24.820292-24.820292H114.875331c-27.545356 0-49.632397 22.125927-49.632398 49.420573v447.196065c0 27.338648 22.221094 49.420573 49.632398 49.420573h794.248315c27.545356 0 49.633421-22.125927 49.633421-49.420573V462.140429c0-27.338648-22.222117-49.420573-49.633421-49.420573H710.558242c-13.707187 0-24.820292 11.113105-24.820292 24.820292s11.113105 24.819269 24.820292 24.819268zM516.65502 65.678862a25.212218 25.212218 0 0 0-9.858532 0.103354c-7.902994-1.678222-16.420995 0.560772-22.534226 6.674003L306.080094 250.638387c-9.599635 9.599635-9.577123 25.293059 0.115633 34.984792 9.760295 9.761318 25.356504 9.744945 34.985816 0.115634l146.000212-146.000212V785.063119c0 13.670348 11.112082 24.774243 24.820292 24.774243 13.802354 0 24.820292-11.091616 24.820291-24.774243V140.986011l144.751779 144.752802c9.599635 9.599635 25.293059 9.578146 34.985815-0.115634 9.760295-9.760295 9.744945-25.356504 0.115634-34.984792L538.491351 72.456219c-5.910617-5.909593-14.129812-8.173147-21.836331-6.777357z" /></svg>