<?xml version="1.0" standalone="no"?><!DOCTYPE svg PUBLIC "-//W3C//DTD SVG 1.1//EN" "http://www.w3.org/Graphics/SVG/1.1/DTD/svg11.dtd"><svg class="icon" width="200px" height="200.00px" viewBox="0 0 1024 1024" version="1.1" xmlns="http://www.w3.org/2000/svg"><path d="M926.8 257.85l-31.59-40.44s-123.84 20.22-121.3-49.28c0 0 8.84-51.81-80.88-31.59 0 0-21.48-20.21-20.22-31.59 0 0 6.32-30.33-91-13.9 0 0-144.06 17.69-302 198.38 0 0-159.22 130.15-159.22-3.79 0 0-87.19 88.45-40.44 159.22 0 0 53.07 74.55 154.17 13.9 0 0-31.59 245.13 130.15 372.76 0 0 169.33 156.69 363.93 101.09 0 0 163-34.12 224.92-198.39 0 0-29.06 29.06-41.7 26.54 0 0 44.23-53.07 46.76-75.82 0 0-1.27-31.59-26.54 17.69 0 0 6.32-30.33-11.37-15.16 0 0-85.93 99.82-122.58 104.87 0 0-271.68 160.48-395.52-163 0 0-53.07-152.9 72-267.88s247.67-103.61 360.14-20.22c0 0 56.86-64.44 80.87-51.81 0 0 21.48-12.63 11.37-31.59z" fill="#E60012" /><path d="M550.12 411.53l276.46-1.3v210.26H550.12V411.53z" fill="#DCDDDD" /></svg>