<?xml version="1.0" standalone="no"?><!DOCTYPE svg PUBLIC "-//W3C//DTD SVG 1.1//EN" "http://www.w3.org/Graphics/SVG/1.1/DTD/svg11.dtd"><svg class="icon" width="200px" height="200.00px" viewBox="0 0 1024 1024" version="1.1" xmlns="http://www.w3.org/2000/svg"><path fill="#2c2c2c" d="M955.83 494.89H794.09l7.17 18.48h155v-18.48zM219.22 694H466.6L340.36 388.15 219.22 694z m546.1-266.86H948l-1.78-8.14-1.74-7.71-0.58-2.62H757.07l8.26 18.48zM472.76 694h247.41L593.91 388.15 472.76 694z"  /><path fill="#2c2c2c" d="M876.16 687.86l-96.5 140.6h-527.6l-103.69-129.3L376.24 111l129.35 307.95 123.2-311 118 276.1H937.2C881.73 200.5 711.34 66.87 509.73 66.87c-246.58 0-446.49 199.91-446.49 446.5s199.9 446.49 446.49 446.49c192.87 0 357.15-122.28 419.62-293.55h-62.42l9.23 21.55z"  /><path fill="#2c2c2c" d="M811.51 538l8.23 18.5h134.43l2.05-18.5H811.51z m26.67 61.61H948l1.12-6.75 1.94-11.7H830l8.2 18.45z m-55.41-129.36h171.4l-0.17-1.05-1-9.71-0.84-7.71h-176.6l7.2 18.47z m65.7 153.95l8.2 17.48h81.12l5.15-17.48h-94.48z"  /></svg>