<?xml version="1.0" standalone="no"?><!DOCTYPE svg PUBLIC "-//W3C//DTD SVG 1.1//EN" "http://www.w3.org/Graphics/SVG/1.1/DTD/svg11.dtd"><svg class="icon" width="200px" height="200.00px" viewBox="0 0 1024 1024" version="1.1" xmlns="http://www.w3.org/2000/svg"><path fill="#2c2c2c" d="M530.295692 549.739533v-55.816237h121.553426c10.275018 0 18.605753-8.329712 18.605754-18.605753 0-10.275018-8.329712-18.605753-18.605754-18.605754H543.246655l121.759111-102.329596c7.265474-7.265474 7.265474-19.045775 0-26.311249s-19.045775-7.265474-26.312272 0L512 434.548 385.306506 328.071967c-7.265474-7.265474-19.045775-7.265474-26.312272 0-7.265474 7.265474-7.265474 19.045775 0 26.311249l121.759111 102.329597H372.150882c-10.275018 0-18.605753 8.329712-18.605754 18.605753s8.329712 18.605753 18.605754 18.605753h120.934326v55.816237h-120.934326c-10.275018 0-18.605753 8.329712-18.605754 18.605753s8.329712 18.605753 18.605754 18.605754h120.934326v93.026719c0 10.276041 8.329712 18.605753 18.605754 18.605754s18.605753-8.329712 18.605753-18.605754v-93.026719H651.850142c10.275018 0 18.605753-8.329712 18.605753-18.605754 0-10.275018-8.329712-18.605753-18.605753-18.605753l-121.55445-0.001023z m428.231131 58.784847v199.76165c0 41.102117-33.379225 74.42199-74.605162 74.42199H140.078339c-41.203424 0-74.605162-33.423227-74.605162-74.42199V608.52438c56.047504 0 101.483322-43.841507 101.483322-97.922216s-45.435819-97.922217-101.483322-97.922217V212.918297c0-41.102117 33.379225-74.42199 74.605162-74.421989h743.843322c41.203424 0 74.605162 33.423227 74.605162 74.421989v199.76165c-56.047504 0-101.483322 43.841507-101.483322 97.922217s45.435819 97.922217 101.483322 97.922216z" /></svg>